{
  "accessors": [
    {
      "bufferView": 2,
      "componentType": 5126,
      "count": 5220,
      "max": [
        2.32496976852417,
        3.5861892700195313,
        1.0869708061218262
      ],
      "min": [
        -2.6575026512145996,
        1.5830843448638916,
        -1.8505005836486816
      ],
      "type": "VEC3"
    },
    {
      "bufferView": 2,
      "byteOffset": 62640,
      "componentType": 5126,
      "count": 5220,
      "max": [
        0.9976314306259155,
        0.9935700297355652,
        0.9999417662620544
      ],
      "min": [
        -0.9972183704376221,
        -0.9925087094306946,
        -0.9999570846557617
      ],
      "type": "VEC3"
    },
    {
      "bufferView": 1,
      "componentType": 5126,
      "count": 5220,
      "max": [
        0.65625,
        1.0
      ],
      "min": [
        0.34375,
        1.4901161193847656e-08
      ],
      "type": "VEC2"
    },
    {
      "bufferView": 0,
      "componentType": 5125,
      "count": 14976,
      "type": "SCALAR"
    },
    {
      "bufferView": 2,
      "byteOffset": 125280,
      "componentType": 5126,
      "count": 2578,
      "max": [
        0.9153326153755188,
        4.5019145011901855,
        0.6328381299972534
      ],
      "min": [
        -1.4096786975860596,
        2.1163439750671387,
        -3.9789538383483887
      ],
      "type": "VEC3"
    },
    {
      "bufferView": 2,
      "byteOffset": 156216,
      "componentType": 5126,
      "count": 2578,
      "max": [
        0.9992738962173462,
        0.9934190511703491,
        0.9886663556098938
      ],
      "min": [
        -0.9978187680244446,
        -0.992967426776886,
        -0.9827830195426941
      ],
      "type": "VEC3"
    },
    {
      "bufferView": 1,
      "byteOffset": 41760,
      "componentType": 5126,
      "count": 2578,
      "max": [
        1.0,
        1.0
      ],
      "min": [
        0.0,
        0.0
      ],
      "type": "VEC2"
    },
    {
      "bufferView": 0,
      "byteOffset": 59904,
      "componentType": 5125,
      "count": 4008,
      "type": "SCALAR"
    },
    {
      "bufferView": 2,
      "byteOffset": 187152,
      "componentType": 5126,
      "count": 1850,
      "max": [
        0.9627799987792969,
        4.366940975189209,
        0.7578736543655396
      ],
      "min": [
        -0.7511263489723206,
        3.4379665851593018,
        -0.28986769914627075
      ],
      "type": "VEC3"
    },
    {
      "bufferView": 2,
      "byteOffset": 209352,
      "componentType": 5126,
      "count": 1850,
      "max": [
        0.9999221563339233,
        0.9992820620536804,
        0.9995056390762329
      ],
      "min": [
        -0.9995319843292236,
        -0.9971753358840942,
        -0.9994646310806274
      ],
      "type": "VEC3"
    },
    {
      "bufferView": 1,
      "byteOffset": 62384,
      "componentType": 5126,
      "count": 1850,
      "max": [
        0.9968311190605164,
        1.0
      ],
      "min": [
        0.0,
        0.0
      ],
      "type": "VEC2"
    },
    {
      "bufferView": 0,
      "byteOffset": 75936,
      "componentType": 5125,
      "count": 5736,
      "type": "SCALAR"
    },
    {
      "bufferView": 2,
      "byteOffset": 231552,
      "componentType": 5126,
      "count": 72,
      "max": [
        0.4229162633419037,
        5.388975143432617,
        -0.8885939121246338
      ],
      "min": [
        -1.9770864248275757,
        4.1092963218688965,
        -4.302868843078613
      ],
      "type": "VEC3"
    },
    {
      "bufferView": 2,
      "byteOffset": 232416,
      "componentType": 5126,
      "count": 72,
      "max": [
        0.7597805261611938,
        0.7847099304199219,
        0.9101334810256958
      ],
      "min": [
        -0.7669287919998169,
        -0.7817996740341187,
        -0.91013503074646
      ],
      "type": "VEC3"
    },
    {
      "bufferView": 1,
      "byteOffset": 77184,
      "componentType": 5126,
      "count": 72,
      "max": [
        0.875,
        1.0
      ],
      "min": [
        0.125,
        0.0
      ],
      "type": "VEC2"
    },
    {
      "bufferView": 0,
      "byteOffset": 98880,
      "componentType": 5125,
      "count": 120,
      "type": "SCALAR"
    },
    {
      "bufferView": 2,
      "byteOffset": 233280,
      "componentType": 5126,
      "count": 4,
      "max": [
        10.065040588378906,
        2.217858787112925e-15,
        9.988348007202148
      ],
      "min": [
        -10.065040588378906,
        -2.217858787112925e-15,
        -9.988348007202148
      ],
      "type": "VEC3"
    },
    {
      "bufferView": 2,
      "byteOffset": 233328,
      "componentType": 5126,
      "count": 4,
      "max": [
        0.0,
        1.0,
        2.220446049250313e-16
      ],
      "min": [
        0.0,
        1.0,
        2.220446049250313e-16
      ],
      "type": "VEC3"
    },
    {
      "bufferView": 1,
      "byteOffset": 77760,
      "componentType": 5126,
      "count": 4,
      "max": [
        0.5483813285827637,
        1.0
      ],
      "min": [
        0.0,
        0.0
      ],
      "type": "VEC2"
    },
    {
      "bufferView": 0,
      "byteOffset": 99360,
      "componentType": 5125,
      "count": 6,
      "type": "SCALAR"
    }
  ],
  "asset": {
    "extras": {
      "author": "alphae (https://sketchfab.com/alphaemu)",
      "license": "CC-BY-4.0 (http://creativecommons.org/licenses/by/4.0/)",
      "source": "https://sketchfab.com/3d-models/fly-model-9afe9b770a5e48a8967ebcc08aa8efde",
      "title": "Fly Model"
    },
    "generator": "Sketchfab-12.65.0",
    "version": "2.0"
  },
  "bufferViews": [
    {
      "buffer": 0,
      "byteLength": 99384,
      "name": "floatBufferViews",
      "target": 34963
    },
    {
      "buffer": 0,
      "byteLength": 77792,
      "byteOffset": 99384,
      "byteStride": 8,
      "name": "floatBufferViews",
      "target": 34962
    },
    {
      "buffer": 0,
      "byteLength": 233376,
      "byteOffset": 177176,
      "byteStride": 12,
      "name": "floatBufferViews",
      "target": 34962
    }
  ],
  "buffers": [
    {
      "byteLength": 410552,
      "uri": "scene.bin"
    }
  ],
  "materials": [
    {
      "doubleSided": true,
      "name": "lambert4",
      "pbrMetallicRoughness": {
        "baseColorFactor": [
          0.217565,
          0.265,
          0.232614,
          1.0
        ],
        "metallicFactor": 0.0,
        "roughnessFactor": 0.6
      }
    },
    {
      "doubleSided": true,
      "name": "lambert3",
      "pbrMetallicRoughness": {
        "baseColorFactor": [
          0.043542,
          0.059,
          0.0484461,
          1.0
        ],
        "metallicFactor": 0.0,
        "roughnessFactor": 0.6
      }
    },
    {
      "doubleSided": true,
      "name": "lambert2",
      "pbrMetallicRoughness": {
        "baseColorFactor": [
          0.5,
          0.0795,
          0.0969017,
          1.0
        ],
        "metallicFactor": 0.0,
        "roughnessFactor": 0.6
      }
    },
    {
      "doubleSided": true,
      "name": "lambert5",
      "pbrMetallicRoughness": {
        "baseColorFactor": [
          1.0,
          0.984669,
          0.883,
          1.0
        ],
        "metallicFactor": 0.0,
        "roughnessFactor": 0.6
      }
    },
    {
      "doubleSided": true,
      "name": "lambert1",
      "pbrMetallicRoughness": {
        "baseColorFactor": [
          0.5,
          0.5,
          0.5,
          1.0
        ],
        "metallicFactor": 0.0,
        "roughnessFactor": 0.6
      }
    }
  ],
  "meshes": [
    {
      "name": "curve1_lambert4_0",
      "primitives": [
        {
          "attributes": {
            "NORMAL": 1,
            "POSITION": 0,
            "TEXCOORD_0": 2
          },
          "indices": 3,
          "material": 0,
          "mode": 4
        }
      ]
    },
    {
      "name": "curve1_lambert3_0",
      "primitives": [
        {
          "attributes": {
            "NORMAL": 5,
            "POSITION": 4,
            "TEXCOORD_0": 6
          },
          "indices": 7,
          "material": 1,
          "mode": 4
        }
      ]
    },
    {
      "name": "curve1_lambert2_0",
      "primitives": [
        {
          "attributes": {
            "NORMAL": 9,
            "POSITION": 8,
            "TEXCOORD_0": 10
          },
          "indices": 11,
          "material": 2,
          "mode": 4
        }
      ]
    },
    {
      "name": "curve1_lambert5_0",
      "primitives": [
        {
          "attributes": {
            "NORMAL": 13,
            "POSITION": 12,
            "TEXCOORD_0": 14
          },
          "indices": 15,
          "material": 3,
          "mode": 4
        }
      ]
    },
    {
      "name": "pPlane1_lambert1_0",
      "primitives": [
        {
          "attributes": {
            "NORMAL": 17,
            "POSITION": 16,
            "TEXCOORD_0": 18
          },
          "indices": 19,
          "material": 4,
          "mode": 4
        }
      ]
    }
  ],
  "nodes": [
    {
      "children": [
        1
      ],
      "matrix": [
        1.0,
        0.0,
        0.0,
        0.0,
        0.0,
        2.220446049250313e-16,
        -1.0,
        0.0,
        0.0,
        1.0,
        2.220446049250313e-16,
        0.0,
        0.0,
        0.0,
        0.0,
        1.0
      ],
      "name": "Sketchfab_model"
    },
    {
      "children": [
        2
      ],
      "matrix": [
        1.0,
        0.0,
        0.0,
        0.0,
        0.0,
        0.0,
        1.0,
        0.0,
        0.0,
        -1.0,
        0.0,
        0.0,
        0.0,
        0.0,
        0.0,
        1.0
      ],
      "name": "638a10dcaa4d431787786d6b2ae476aa.fbx"
    },
    {
      "children": [
        3,
        8,
        10,
        13,
        16,
        18,
        20,
        22
      ],
      "name": "RootNode"
    },
    {
      "children": [
        4,
        5,
        6,
        7
      ],
      "matrix": [
        0.18684396147727966,
        0.0,
        0.0,
        0.0,
        0.0,
        0.18684396147727966,
        0.0,
        0.0,
        0.0,
        0.0,
        0.18684396147727966,
        0.0,
        0.1243300810456276,
        -0.26821112632751465,
        0.15557870268821716,
        1.0
      ],
      "name": "curve1"
    },
    {
      "mesh": 0,
      "name": "curve1_lambert4_0"
    },
    {
      "mesh": 1,
      "name": "curve1_lambert3_0"
    },
    {
      "mesh": 2,
      "name": "curve1_lambert2_0"
    },
    {
      "mesh": 3,
      "name": "curve1_lambert5_0"
    },
    {
      "children": [
        9
      ],
      "matrix": [
        1.0,
        0.0,
        0.0,
        0.0,
        0.0,
        1.0,
        0.0,
        0.0,
        0.0,
        0.0,
        1.0,
        0.0,
        0.02844982221722603,
        0.0,
        -0.04184933379292488,
        1.0
      ],
      "name": "pPlane1"
    },
    {
      "mesh": 4,
      "name": "pPlane1_lambert1_0"
    },
    {
      "children": [
        11
      ],
      "matrix": [
        9.040999098053522,
        -6.354705868097778e-16,
        7.021990312211842,
        0.0,
        -5.735725629876673,
        6.603993395388193,
        7.384899144080882,
        0.0,
        -0.353864028241341,
        -0.8168233470646856,
        0.4556093383666052,
        0.0,
        -6.237839221954346,
        9.249906539916992,
        9.296672821044922,
        1.0
      ],
      "name": "areaLight1"
    },
    {
      "children": [
        12
      ],
      "matrix": [
        1.0,
        0.0,
        0.0,
        0.0,
        0.0,
        2.220446049250313e-16,
        1.0,
        0.0,
        0.0,
        -1.0,
        2.220446049250313e-16,
        0.0,
        0.0,
        0.0,
        0.0,
        1.0
      ],
      "name": "Object_11"
    },
    {
      "name": "Object_12"
    },
    {
      "children": [
        14
      ],
      "matrix": [
        2.4302355507582103,
        2.1762190180028178e-16,
        -3.0761866257462085,
        0.0,
        2.5654675876397413,
        2.1632362063640698,
        2.026759522201492,
        0.0,
        0.4329840401973573,
        -0.8339765754678232,
        0.3420641643103459,
        0.0,
        9.181408882141113,
        9.936874389648438,
        9.886998176574707,
        1.0
      ],
      "name": "areaLight2"
    },
    {
      "children": [
        15
      ],
      "matrix": [
        1.0,
        0.0,
        0.0,
        0.0,
        0.0,
        2.220446049250313e-16,
        1.0,
        0.0,
        0.0,
        -1.0,
        2.220446049250313e-16,
        0.0,
        0.0,
        0.0,
        0.0,
        1.0
      ],
      "name": "Object_14"
    },
    {
      "name": "Object_15"
    },
    {
      "children": [
        17
      ],
      "matrix": [
        -0.4740321603973914,
        -0.6338987249995586,
        -0.6111185787986784,
        0.0,
        -0.38852099985462424,
        0.773416062959604,
        -0.5008782548963662,
        0.0,
        0.7901550123747527,
        -5.551115123125783e-17,
        -0.6129070536541861,
        0.0,
        1.2511519193649292,
        1.8804372549057007,
        1.3938623666763306,
        1.0
      ],
      "name": "persp1"
    },
    {
      "name": "Object_17"
    },
    {
      "children": [
        19
      ],
      "matrix": [
        -0.4207843991841931,
        -0.8124739566113475,
        0.4035177310001382,
        0.0,
        -0.5864113882459581,
        0.582997486982836,
        0.5623483030179304,
        0.0,
        -0.6921431738727516,
        2.220446049250313e-16,
        -0.7217602280961137,
        0.0,
        0.6863364577293396,
        1.5365214347839355,
        -0.7749115228652954,
        1.0
      ],
      "name": "persp2"
    },
    {
      "name": "Object_19"
    },
    {
      "children": [
        21
      ],
      "matrix": [
        -0.13285141581764126,
        -0.3638748059110917,
        -0.9219249573248431,
        0.0,
        -0.051899075569015296,
        0.931447865220145,
        -0.36015463391703895,
        0.0,
        0.9897762309079412,
        3.608224830031759e-16,
        -0.1426289337044564,
        0.0,
        0.43113598227500916,
        1.0238518714904785,
        1.7569503784179688,
        1.0
      ],
      "name": "persp3"
    },
    {
      "name": "Object_21"
    },
    {
      "children": [
        23
      ],
      "matrix": [
        -0.3224035732702615,
        -0.7675943544232956,
        -0.5539448014017747,
        0.0,
        -0.38611527119578415,
        0.6409359617446069,
        -0.6634124586499126,
        0.0,
        0.8642748019536226,
        -3.3306690738754696e-16,
        -0.5030199466303764,
        0.0,
        1.1161437034606934,
        2.55562424659729,
        1.488602638244629,
        1.0
      ],
      "name": "persp4"
    },
    {
      "name": "Object_23"
    }
  ],
  "scene": 0,
  "scenes": [
    {
      "name": "Sketchfab_Scene",
      "nodes": [
        0
      ]
    }
  ]
}
