{
  "accessors": [
    {
      "bufferView": 2,
      "componentType": 5126,
      "count": 63,
      "max": [
        2.0411345958709717,
        0.0,
        2.0411345958709717
      ],
      "min": [
        -2.0411345958709717,
        -0.45391881465911865,
        -2.0411345958709717
      ],
      "type": "VEC3"
    },
    {
      "bufferView": 2,
      "byteOffset": 756,
      "componentType": 5126,
      "count": 63,
      "max": [
        1.0,
        0.0,
        1.0
      ],
      "min": [
        -1.0,
        -1.0,
        -1.0
      ],
      "type": "VEC3"
    },
    {
      "bufferView": 1,
      "componentType": 5126,
      "count": 63,
      "max": [
        0.9868794679641724,
        0.994813859462738
      ],
      "min": [
        0.01874234713613987,
        0.005573506932705641
      ],
      "type": "VEC2"
    },
    {
      "bufferView": 0,
      "componentType": 5125,
      "count": 192,
      "type": "SCALAR"
    },
    {
      "bufferView": 2,
      "byteOffset": 1512,
      "componentType": 5126,
      "count": 2072,
      "max": [
        0.7683786153793335,
        0.4608604907989502,
        0.35264918208122253
      ],
      "min": [
        -0.10853800177574158,
        -0.2132362425327301,
        -0.2504514455795288
      ],
      "type": "VEC3"
    },
    {
      "bufferView": 2,
      "byteOffset": 26376,
      "componentType": 5126,
      "count": 2072,
      "max": [
        0.9998536109924316,
        0.9825424551963806,
        0.9990514516830444
      ],
      "min": [
        -0.999032199382782,
        -0.9991233944892883,
        -0.9991889595985413
      ],
      "type": "VEC3"
    },
    {
      "bufferView": 1,
      "byteOffset": 504,
      "componentType": 5126,
      "count": 2072,
      "max": [
        0.9972972869873047,
        0.9851177334785461
      ],
      "min": [
        0.21571758389472961,
        0.0027026848401874304
      ],
      "type": "VEC2"
    },
    {
      "bufferView": 0,
      "byteOffset": 768,
      "componentType": 5125,
      "count": 5712,
      "type": "SCALAR"
    },
    {
      "bufferView": 2,
      "byteOffset": 51240,
      "componentType": 5126,
      "count": 1514,
      "max": [
        0.6446642875671387,
        1.4644076824188232,
        0.08642315864562988
      ],
      "min": [
        0.0871897041797638,
        -0.2481977343559265,
        -0.20623189210891724
      ],
      "type": "VEC3"
    },
    {
      "bufferView": 2,
      "byteOffset": 69408,
      "componentType": 5126,
      "count": 1514,
      "max": [
        0.9992914199829102,
        0.8339544534683228,
        0.9911043643951416
      ],
      "min": [
        -0.9992913603782654,
        -0.9414398074150085,
        -0.991104245185852
      ],
      "type": "VEC3"
    },
    {
      "bufferView": 1,
      "byteOffset": 17080,
      "componentType": 5126,
      "count": 1514,
      "max": [
        0.8279240727424622,
        0.9049680829048157
      ],
      "min": [
        0.03820516914129257,
        0.0027026848401874304
      ],
      "type": "VEC2"
    },
    {
      "bufferView": 0,
      "byteOffset": 23616,
      "componentType": 5125,
      "count": 4140,
      "type": "SCALAR"
    },
    {
      "bufferView": 2,
      "byteOffset": 87576,
      "componentType": 5126,
      "count": 236,
      "max": [
        0.4769847095012665,
        0.010510703548789024,
        0.49866849184036255
      ],
      "min": [
        -0.6658133268356323,
        -0.01199401542544365,
        -0.5347806215286255
      ],
      "type": "VEC3"
    },
    {
      "bufferView": 2,
      "byteOffset": 90408,
      "componentType": 5126,
      "count": 236,
      "max": [
        0.9405657649040222,
        1.0,
        0.9993540048599243
      ],
      "min": [
        -0.9409927129745483,
        -0.9999991059303284,
        -0.9992455244064331
      ],
      "type": "VEC3"
    },
    {
      "bufferView": 1,
      "byteOffset": 29192,
      "componentType": 5126,
      "count": 236,
      "max": [
        0.9117929935455322,
        0.997978687286377
      ],
      "min": [
        0.0027103135362267494,
        0.0006631296128034592
      ],
      "type": "VEC2"
    },
    {
      "bufferView": 0,
      "byteOffset": 40176,
      "componentType": 5125,
      "count": 660,
      "type": "SCALAR"
    },
    {
      "bufferView": 2,
      "byteOffset": 93240,
      "componentType": 5126,
      "count": 1246,
      "max": [
        2.5266966819763184,
        1.023678183555603,
        2.6617517471313477
      ],
      "min": [
        -2.7180397510528564,
        -2.0129988193511963,
        -2.6617517471313477
      ],
      "type": "VEC3"
    },
    {
      "bufferView": 2,
      "byteOffset": 108192,
      "componentType": 5126,
      "count": 1246,
      "max": [
        0.951764702796936,
        0.9999755620956421,
        0.9937499165534973
      ],
      "min": [
        -0.9895727038383484,
        -0.9969272017478943,
        -0.9937500357627869
      ],
      "type": "VEC3"
    },
    {
      "bufferView": 1,
      "byteOffset": 31080,
      "componentType": 5126,
      "count": 1246,
      "max": [
        1.0,
        1.0
      ],
      "min": [
        0.0,
        0.0
      ],
      "type": "VEC2"
    },
    {
      "bufferView": 0,
      "byteOffset": 42816,
      "componentType": 5125,
      "count": 3168,
      "type": "SCALAR"
    },
    {
      "bufferView": 2,
      "byteOffset": 123144,
      "componentType": 5126,
      "count": 48,
      "max": [
        0.007575660943984985,
        0.00719684362411499,
        0.010460108518600464
      ],
      "min": [
        -0.008973732590675354,
        -0.005585849285125732,
        -0.01046016812324524
      ],
      "type": "VEC3"
    },
    {
      "bufferView": 2,
      "byteOffset": 123720,
      "componentType": 5126,
      "count": 48,
      "max": [
        1.0,
        0.9904216527938843,
        0.9904216527938843
      ],
      "min": [
        -1.0,
        -0.9904215931892395,
        -0.9904216527938843
      ],
      "type": "VEC3"
    },
    {
      "bufferView": 1,
      "byteOffset": 41048,
      "componentType": 5126,
      "count": 48,
      "max": [
        0.8209705352783203,
        0.8211132884025574
      ],
      "min": [
        0.2476358413696289,
        0.2617760896682739
      ],
      "type": "VEC2"
    },
    {
      "bufferView": 0,
      "byteOffset": 55488,
      "componentType": 5125,
      "count": 96,
      "type": "SCALAR"
    },
    {
      "bufferView": 2,
      "byteOffset": 124296,
      "componentType": 5126,
      "count": 1897,
      "max": [
        0.576274037361145,
        0.5811984539031982,
        0.03817343711853027
      ],
      "min": [
        -0.03817248344421387,
        -0.8095611333847046,
        -0.2910478413105011
      ],
      "type": "VEC3"
    },
    {
      "bufferView": 2,
      "byteOffset": 147060,
      "componentType": 5126,
      "count": 1897,
      "max": [
        1.0,
        0.8160531520843506,
        0.9971194267272949
      ],
      "min": [
        -1.0,
        -1.0,
        -0.997119128704071
      ],
      "type": "VEC3"
    },
    {
      "bufferView": 1,
      "byteOffset": 41432,
      "componentType": 5126,
      "count": 1897,
      "max": [
        0.915449321269989,
        0.9113225340843201
      ],
      "min": [
        0.002702683210372925,
        0.0027026848401874304
      ],
      "type": "VEC2"
    },
    {
      "bufferView": 0,
      "byteOffset": 55872,
      "componentType": 5125,
      "count": 4968,
      "type": "SCALAR"
    },
    {
      "bufferView": 2,
      "byteOffset": 169824,
      "componentType": 5126,
      "count": 2402,
      "max": [
        0.8079745173454285,
        -0.25971031188964844,
        0.20505401492118835
      ],
      "min": [
        -0.07297499477863312,
        -0.8651952147483826,
        -0.6564391851425171
      ],
      "type": "VEC3"
    },
    {
      "bufferView": 2,
      "byteOffset": 198648,
      "componentType": 5126,
      "count": 2402,
      "max": [
        0.9988759756088257,
        0.9696608781814575,
        0.992245614528656
      ],
      "min": [
        -0.9995682835578918,
        -0.9992744326591492,
        -0.9912809133529663
      ],
      "type": "VEC3"
    },
    {
      "bufferView": 1,
      "byteOffset": 56608,
      "componentType": 5126,
      "count": 2402,
      "max": [
        0.9972972869873047,
        0.9851177334785461
      ],
      "min": [
        0.21571758389472961,
        0.0027026848401874304
      ],
      "type": "VEC2"
    },
    {
      "bufferView": 0,
      "byteOffset": 75744,
      "componentType": 5125,
      "count": 6528,
      "type": "SCALAR"
    }
  ],
  "asset": {
    "extras": {
      "author": "Ub1k (https://sketchfab.com/ub1que)",
      "license": "CC-BY-NC-SA-4.0 (http://creativecommons.org/licenses/by-nc-sa/4.0/)",
      "source": "https://sketchfab.com/3d-models/low-poly-frog-in-the-thickets-of-cattail-b9a1ecc9405847959dfe99d5b654c301",
      "title": "Low-poly frog in the thickets of cattail"
    },
    "generator": "Sketchfab-14.77.0",
    "version": "2.0"
  },
  "bufferViews": [
    {
      "buffer": 0,
      "byteLength": 101856,
      "name": "floatBufferViews",
      "target": 34963
    },
    {
      "buffer": 0,
      "byteLength": 75824,
      "byteOffset": 101856,
      "byteStride": 8,
      "name": "floatBufferViews",
      "target": 34962
    },
    {
      "buffer": 0,
      "byteLength": 227472,
      "byteOffset": 177680,
      "byteStride": 12,
      "name": "floatBufferViews",
      "target": 34962
    }
  ],
  "buffers": [
    {
      "byteLength": 405152,
      "uri": "scene.bin"
    }
  ],
  "images": [
    {
      "uri": "textures/wo-a_baseColor.png"
    },
    {
      "uri": "textures/grass_baseColor.png"
    },
    {
      "uri": "textures/LILLY_baseColor.png"
    },
    {
      "uri": "textures/FROG_baseColor.png"
    }
  ],
  "materials": [
    {
      "doubleSided": true,
      "name": "wo-a",
      "pbrMetallicRoughness": {
        "baseColorTexture": {
          "index": 0
        },
        "metallicFactor": 0.0
      }
    },
    {
      "doubleSided": true,
      "name": "grass",
      "pbrMetallicRoughness": {
        "baseColorTexture": {
          "index": 1
        },
        "metallicFactor": 0.0
      }
    },
    {
      "doubleSided": true,
      "name": "typhamain",
      "pbrMetallicRoughness": {
        "baseColorTexture": {
          "index": 1
        },
        "metallicFactor": 0.0
      }
    },
    {
      "doubleSided": true,
      "name": "LILLY",
      "pbrMetallicRoughness": {
        "baseColorTexture": {
          "index": 2
        },
        "metallicFactor": 0.0
      }
    },
    {
      "doubleSided": true,
      "name": "FROG",
      "pbrMetallicRoughness": {
        "baseColorTexture": {
          "index": 3
        },
        "metallicFactor": 0.0
      }
    },
    {
      "doubleSided": true,
      "name": "material",
      "pbrMetallicRoughness": {
        "baseColorTexture": {
          "index": 1
        },
        "metallicFactor": 0.0
      }
    }
  ],
  "meshes": [
    {
      "name": "Object_0",
      "primitives": [
        {
          "attributes": {
            "NORMAL": 1,
            "POSITION": 0,
            "TEXCOORD_0": 2
          },
          "indices": 3,
          "material": 0,
          "mode": 4
        }
      ]
    },
    {
      "name": "Object_1",
      "primitives": [
        {
          "attributes": {
            "NORMAL": 5,
            "POSITION": 4,
            "TEXCOORD_0": 6
          },
          "indices": 7,
          "material": 1,
          "mode": 4
        }
      ]
    },
    {
      "name": "Object_2",
      "primitives": [
        {
          "attributes": {
            "NORMAL": 9,
            "POSITION": 8,
            "TEXCOORD_0": 10
          },
          "indices": 11,
          "material": 2,
          "mode": 4
        }
      ]
    },
    {
      "name": "Object_3",
      "primitives": [
        {
          "attributes": {
            "NORMAL": 13,
            "POSITION": 12,
            "TEXCOORD_0": 14
          },
          "indices": 15,
          "material": 3,
          "mode": 4
        }
      ]
    },
    {
      "name": "Object_4",
      "primitives": [
        {
          "attributes": {
            "NORMAL": 17,
            "POSITION": 16,
            "TEXCOORD_0": 18
          },
          "indices": 19,
          "material": 4,
          "mode": 4
        }
      ]
    },
    {
      "name": "Object_5",
      "primitives": [
        {
          "attributes": {
            "NORMAL": 21,
            "POSITION": 20,
            "TEXCOORD_0": 22
          },
          "indices": 23,
          "material": 5,
          "mode": 4
        }
      ]
    },
    {
      "name": "Object_6",
      "primitives": [
        {
          "attributes": {
            "NORMAL": 25,
            "POSITION": 24,
            "TEXCOORD_0": 26
          },
          "indices": 27,
          "material": 2,
          "mode": 4
        }
      ]
    },
    {
      "name": "Object_7",
      "primitives": [
        {
          "attributes": {
            "NORMAL": 29,
            "POSITION": 28,
            "TEXCOORD_0": 30
          },
          "indices": 31,
          "material": 1,
          "mode": 4
        }
      ]
    }
  ],
  "nodes": [
    {
      "children": [
        1
      ],
      "matrix": [
        1.0,
        0.0,
        0.0,
        0.0,
        0.0,
        2.220446049250313e-16,
        -1.0,
        0.0,
        0.0,
        1.0,
        2.220446049250313e-16,
        0.0,
        0.0,
        0.0,
        0.0,
        1.0
      ],
      "name": "Sketchfab_model"
    },
    {
      "children": [
        2
      ],
      "name": "root"
    },
    {
      "children": [
        3,
        5,
        8,
        10,
        12,
        14
      ],
      "matrix": [
        1.0,
        0.0,
        0.0,
        0.0,
        0.0,
        2.220446049250313e-16,
        1.0,
        0.0,
        0.0,
        -1.0,
        2.220446049250313e-16,
        0.0,
        0.0,
        0.0,
        0.0,
        1.0
      ],
      "name": "GLTF_SceneRootNode"
    },
    {
      "children": [
        4
      ],
      "matrix": [
        0.5201783425097855,
        0.0,
        -0.03597817810130404,
        0.0,
        0.0,
        0.5214210748672485,
        0.0,
        0.0,
        0.03597817810130404,
        0.0,
        0.5201783425097855,
        0.0,
        0.0,
        0.0,
        0.0,
        1.0
      ],
      "name": "wo-a _0"
    },
    {
      "mesh": 0,
      "name": "Object_4"
    },
    {
      "children": [
        6,
        7
      ],
      "matrix": [
        -0.06596687707376121,
        0.0,
        0.965848572065484,
        0.0,
        0.0,
        0.9688856601715088,
        0.0,
        0.0,
        -0.7804320011318785,
        0.0,
        -0.05330303669963452,
        0.0,
        0.8411633968353271,
        0.09268864244222641,
        -0.1642642766237259,
        1.0
      ],
      "name": "grass.035_1"
    },
    {
      "mesh": 1,
      "name": "Object_6"
    },
    {
      "mesh": 2,
      "name": "Object_7"
    },
    {
      "children": [
        9
      ],
      "matrix": [
        0.8361797590828048,
        0.0,
        -0.06860674384962245,
        0.0,
        0.0,
        0.8389895558357239,
        0.0,
        0.0,
        0.06860674384962245,
        0.0,
        0.8361797590828048,
        0.0,
        0.0936107188463211,
        0.009495548903942108,
        0.039055466651916504,
        1.0
      ],
      "name": "lILLYwater_2"
    },
    {
      "mesh": 3,
      "name": "Object_9"
    },
    {
      "children": [
        11
      ],
      "matrix": [
        0.06356369766374728,
        -0.019306971300444085,
        -0.0367065942570285,
        0.0,
        0.016590612350494697,
        0.0734006596198265,
        -0.009877891658144029,
        0.0,
        0.038011633367536234,
        0.00024889306386816144,
        0.06569268134639263,
        0.0,
        0.00734739750623703,
        0.11544479429721832,
        -0.017610730603337288,
        1.0
      ],
      "name": "FROG_3"
    },
    {
      "mesh": 4,
      "name": "Object_11"
    },
    {
      "children": [
        13
      ],
      "matrix": [
        -1.2280945084720987,
        -0.09240197561747186,
        -0.10047581921976288,
        0.0,
        -0.09364252472298229,
        1.2684729793947653,
        -0.02197084789994391,
        0.0,
        0.0945258029106559,
        -0.012829264912548271,
        -1.143570372773361,
        0.0,
        -0.569254457950592,
        0.3585968613624573,
        0.20201317965984344,
        1.0
      ],
      "name": "fly_4"
    },
    {
      "mesh": 5,
      "name": "Object_13"
    },
    {
      "children": [
        15,
        16
      ],
      "matrix": [
        -0.78240908335231,
        -0.00019057614581770445,
        -0.5084442709282794,
        0.0,
        -6.706665206171908e-05,
        1.1222226150742491,
        -0.00031742968147233596,
        0.0,
        0.4804908796569106,
        -0.00018042813353206233,
        -0.739393510403503,
        0.0,
        0.4808565378189087,
        0.8446764349937439,
        -0.811412513256073,
        1.0
      ],
      "name": "Typha.003_5"
    },
    {
      "mesh": 6,
      "name": "Object_15"
    },
    {
      "mesh": 7,
      "name": "Object_16"
    }
  ],
  "samplers": [
    {
      "magFilter": 9729,
      "minFilter": 9987,
      "wrapS": 10497,
      "wrapT": 10497
    }
  ],
  "scene": 0,
  "scenes": [
    {
      "name": "Sketchfab_Scene",
      "nodes": [
        0
      ]
    }
  ],
  "textures": [
    {
      "sampler": 0,
      "source": 0
    },
    {
      "sampler": 0,
      "source": 1
    },
    {
      "sampler": 0,
      "source": 2
    },
    {
      "sampler": 0,
      "source": 3
    }
  ]
}
