{
  "accessors": [
    {
      "bufferView": 2,
      "componentType": 5126,
      "count": 45312,
      "max": [
        3.5267999172210693,
        3.388000011444092,
        5.682499885559082
      ],
      "min": [
        -5.722300052642822,
        -0.022700000554323196,
        -5.682499885559082
      ],
      "type": "VEC3"
    },
    {
      "bufferView": 2,
      "byteOffset": 543744,
      "componentType": 5126,
      "count": 45312,
      "max": [
        0.9987793564796448,
        0.9998365044593811,
        0.9986994862556458
      ],
      "min": [
        -0.9983988404273987,
        -0.9999465346336365,
        -0.9986994862556458
      ],
      "type": "VEC3"
    },
    {
      "bufferView": 1,
      "componentType": 5126,
      "count": 45312,
      "max": [
        0.9336000084877014,
        0.982200026512146
      ],
      "min": [
        0.0,
        0.016499999910593033
      ],
      "type": "VEC2"
    },
    {
      "bufferView": 0,
      "componentType": 5125,
      "count": 67980,
      "type": "SCALAR"
    },
    {
      "bufferView": 2,
      "byteOffset": 1087488,
      "componentType": 5126,
      "count": 1776,
      "max": [
        17.13407325744629,
        18.227405548095703,
        8.85843276977539
      ],
      "min": [
        11.875570297241211,
        12.237147331237793,
        -8.85843276977539
      ],
      "type": "VEC3"
    },
    {
      "bufferView": 2,
      "byteOffset": 1108800,
      "componentType": 5126,
      "count": 1776,
      "max": [
        0.9945518970489502,
        0.9526354670524597,
        0.9997138977050781
      ],
      "min": [
        -0.6019126772880554,
        -0.8663782477378845,
        -0.9997138977050781
      ],
      "type": "VEC3"
    },
    {
      "bufferView": 1,
      "byteOffset": 362496,
      "componentType": 5126,
      "count": 1776,
      "max": [
        0.6696000099182129,
        0.9970999956130981
      ],
      "min": [
        0.5910999774932861,
        0.920799970626831
      ],
      "type": "VEC2"
    },
    {
      "bufferView": 0,
      "byteOffset": 271920,
      "componentType": 5125,
      "count": 2664,
      "type": "SCALAR"
    }
  ],
  "asset": {
    "extras": {
      "author": "PRINCE.JACK (https://sketchfab.com/J.A.C.K)",
      "license": "CC-BY-4.0 (http://creativecommons.org/licenses/by/4.0/)",
      "source": "https://sketchfab.com/3d-models/low-poly-frog-eec4f7f0ea1e495f8849f100e2087c2a",
      "title": "Low Poly Frog"
    },
    "generator": "Sketchfab-12.68.0",
    "version": "2.0"
  },
  "bufferViews": [
    {
      "buffer": 0,
      "byteLength": 282576,
      "name": "floatBufferViews",
      "target": 34963
    },
    {
      "buffer": 0,
      "byteLength": 376704,
      "byteOffset": 282576,
      "byteStride": 8,
      "name": "floatBufferViews",
      "target": 34962
    },
    {
      "buffer": 0,
      "byteLength": 1130112,
      "byteOffset": 659280,
      "byteStride": 12,
      "name": "floatBufferViews",
      "target": 34962
    }
  ],
  "buffers": [
    {
      "byteLength": 1789392,
      "uri": "scene.bin"
    }
  ],
  "extensionsRequired": [
    "KHR_materials_pbrSpecularGlossiness"
  ],
  "extensionsUsed": [
    "KHR_materials_pbrSpecularGlossiness"
  ],
  "materials": [
    {
      "doubleSided": true,
      "extensions": {
        "KHR_materials_pbrSpecularGlossiness": {
          "diffuseFactor": [
            0.18981793952253562,
            0.4594144284531966,
            0.060368829963230265,
            1.0
          ],
          "glossinessFactor": 0.0,
          "specularFactor": [
            0.1347365746164536,
            0.0,
            0.08975366868300386
          ]
        }
      },
      "name": "VRayMtl1"
    },
    {
      "doubleSided": true,
      "extensions": {
        "KHR_materials_pbrSpecularGlossiness": {
          "diffuseFactor": [
            0.0,
            0.0,
            0.0,
            1.0
          ],
          "glossinessFactor": 1.0,
          "specularFactor": [
            0.0,
            1.0,
            0.5830405017641953
          ]
        }
      },
      "name": "VRayMtl2"
    }
  ],
  "meshes": [
    {
      "name": "polySurface5_VRayMtl1_0",
      "primitives": [
        {
          "attributes": {
            "NORMAL": 1,
            "POSITION": 0,
            "TEXCOORD_0": 2
          },
          "indices": 3,
          "material": 0,
          "mode": 4
        }
      ]
    },
    {
      "name": "polySurface6_VRayMtl2_0",
      "primitives": [
        {
          "attributes": {
            "NORMAL": 5,
            "POSITION": 4,
            "TEXCOORD_0": 6
          },
          "indices": 7,
          "material": 1,
          "mode": 4
        }
      ]
    }
  ],
  "nodes": [
    {
      "children": [
        1
      ],
      "matrix": [
        1.0,
        0.0,
        0.0,
        0.0,
        0.0,
        2.220446049250313e-16,
        -1.0,
        0.0,
        0.0,
        1.0,
        2.220446049250313e-16,
        0.0,
        0.0,
        0.0,
        0.0,
        1.0
      ],
      "name": "Sketchfab_model"
    },
    {
      "children": [
        2
      ],
      "matrix": [
        0.30480000376701355,
        0.0,
        0.0,
        0.0,
        0.0,
        0.0,
        0.30480000376701355,
        0.0,
        0.0,
        -0.30480000376701355,
        0.0,
        0.0,
        0.0,
        0.0,
        0.0,
        1.0
      ],
      "name": "2f1a09e46dde474d8834b78fd22ca99f.fbx"
    },
    {
      "children": [
        3,
        6
      ],
      "name": "RootNode"
    },
    {
      "children": [
        4
      ],
      "matrix": [
        0.17876183986663818,
        0.0,
        0.0,
        0.0,
        0.0,
        0.17876183986663818,
        0.0,
        0.0,
        0.0,
        0.0,
        0.17876183986663818,
        0.0,
        0.15969496965408325,
        0.0,
        0.0,
        1.0
      ],
      "name": "polySurface4"
    },
    {
      "children": [
        5
      ],
      "name": "polySurface5"
    },
    {
      "mesh": 0,
      "name": "polySurface5_VRayMtl1_0"
    },
    {
      "children": [
        7
      ],
      "matrix": [
        0.03280840069055557,
        0.0,
        0.0,
        0.0,
        0.0,
        0.03280840069055557,
        0.0,
        0.0,
        0.0,
        0.0,
        0.03280840069055557,
        0.0,
        0.0,
        0.0,
        0.0,
        1.0
      ],
      "name": "polySurface6"
    },
    {
      "mesh": 1,
      "name": "polySurface6_VRayMtl2_0"
    }
  ],
  "scene": 0,
  "scenes": [
    {
      "name": "Sketchfab_Scene",
      "nodes": [
        0
      ]
    }
  ]
}
